<svg width="49" height="26" viewBox="0 0 49 26" fill="none" xmlns="http://www.w3.org/2000/svg">
<rect x="0.321516" y="0.321516" width="48.0413" height="24.9803" rx="2.25061" fill="white" stroke="white" stroke-width="0.643033"/>
<path d="M13.1818 7.07874C13.6292 6.51915 13.9328 5.7678 13.8527 5C13.1978 5.03257 12.3986 5.43207 11.9359 5.99209C11.5205 6.47166 11.1528 7.25448 11.2486 7.99009C11.9838 8.05386 12.7183 7.62262 13.1818 7.07874Z" fill="black"/>
<path d="M13.8444 8.13372C12.7768 8.07012 11.869 8.73966 11.3591 8.73966C10.849 8.73966 10.0682 8.16576 9.2238 8.18123C8.12469 8.19737 7.10485 8.81882 6.5471 9.8072C5.3999 11.7845 6.24435 14.7174 7.35994 16.3278C7.90169 17.1245 8.5546 18.0017 9.41491 17.9702C10.2277 17.9383 10.5464 17.4439 11.5344 17.4439C12.5217 17.4439 12.8087 17.9702 13.6692 17.9543C14.5615 17.9383 15.1193 17.1572 15.6611 16.3597C16.2825 15.4515 16.537 14.5746 16.553 14.5264C16.537 14.5105 14.8324 13.8565 14.8165 11.8957C14.8005 10.2539 16.1549 9.47295 16.2186 9.42452C15.4538 8.29331 14.2587 8.16576 13.8444 8.13372Z" fill="black"/>
<path d="M23.1406 5.91175C25.4612 5.91175 27.077 7.5113 27.077 9.84012C27.077 12.1773 25.4279 13.7851 23.0825 13.7851H20.5132V17.871H18.6569V5.91174H23.1406V5.91175ZM20.5132 12.227H22.6432C24.2593 12.227 25.1792 11.3569 25.1792 9.84843C25.1792 8.34016 24.2593 7.4782 22.6515 7.4782H20.5132V12.227Z" fill="black"/>
<path d="M27.562 15.393C27.562 13.868 28.7305 12.9315 30.8026 12.8154L33.1893 12.6746V12.0034C33.1893 11.0337 32.5345 10.4535 31.4408 10.4535C30.4046 10.4535 29.7581 10.9507 29.6008 11.7298H27.9101C28.0096 10.1551 29.3521 8.99481 31.507 8.99481C33.6203 8.99481 34.9711 10.1137 34.9711 11.8624V17.871H33.2555V16.4372H33.2142C32.7088 17.4069 31.6064 18.0201 30.4628 18.0201C28.7555 18.0201 27.562 16.9593 27.562 15.393ZM33.1893 14.6057V13.9178L31.0427 14.0504C29.9736 14.125 29.3687 14.5974 29.3687 15.3433C29.3687 16.1057 29.9985 16.603 30.9599 16.603C32.2113 16.603 33.1893 15.741 33.1893 14.6057Z" fill="black"/>
<path d="M36.5908 21.0784V19.628C36.7232 19.6611 37.0215 19.6611 37.1708 19.6611C37.9995 19.6611 38.4471 19.3131 38.7205 18.418C38.7205 18.4014 38.8781 17.8876 38.8781 17.8793L35.7289 9.15228H37.668L39.8727 16.2467H39.9057L42.1105 9.15228H44L40.7344 18.3268C39.9888 20.4402 39.1268 21.1198 37.3201 21.1198C37.1708 21.1198 36.7232 21.1032 36.5908 21.0784Z" fill="black"/>
</svg>
