<svg width="50" height="26" viewBox="0 0 50 26" fill="none" xmlns="http://www.w3.org/2000/svg">
<g clip-path="url(#clip0_65_1732)">
<rect x="0.64781" y="0.321516" width="48.0413" height="24.9803" rx="2.25061" fill="white" stroke="white" stroke-width="0.643033"/>
<path fill-rule="evenodd" clip-rule="evenodd" d="M25.3697 17.9878C24.1646 19.0036 22.6014 19.6168 20.8932 19.6168C17.0818 19.6168 13.9921 16.5638 13.9921 12.7978C13.9921 9.03174 17.0818 5.97876 20.8932 5.97876C22.6014 5.97876 24.1646 6.59198 25.3697 7.60778C26.5748 6.59199 28.138 5.97878 29.8461 5.97878C33.6575 5.97878 36.7473 9.03176 36.7473 12.7978C36.7473 16.5639 33.6575 19.6168 29.8461 19.6168C28.138 19.6168 26.5748 19.0036 25.3697 17.9878Z" fill="#ED0006"/>
<path fill-rule="evenodd" clip-rule="evenodd" d="M25.3697 17.9879C26.8535 16.7372 27.7945 14.8761 27.7945 12.7978C27.7945 10.7196 26.8535 8.85845 25.3697 7.60771C26.5747 6.59196 28.1379 5.97878 29.846 5.97878C33.6574 5.97878 36.7472 9.03176 36.7472 12.7978C36.7472 16.5639 33.6574 19.6168 29.846 19.6168C28.1379 19.6168 26.5747 19.0037 25.3697 17.9879Z" fill="#F9A000"/>
<path fill-rule="evenodd" clip-rule="evenodd" d="M25.3697 17.9878C26.8535 16.737 27.7943 14.876 27.7943 12.7978C27.7943 10.7195 26.8535 8.85848 25.3697 7.60774C23.8859 8.85848 22.945 10.7195 22.945 12.7978C22.945 14.876 23.8859 16.737 25.3697 17.9878Z" fill="#FF5E00"/>
</g>
<defs>
<clipPath id="clip0_65_1732">
<rect x="0.326294" width="48.6843" height="25.6233" rx="3.41645" fill="white"/>
</clipPath>
</defs>
</svg>
