<svg width="110" height="38" viewBox="0 0 110 38" fill="none" xmlns="http://www.w3.org/2000/svg">
<g clip-path="url(#clip0_178_3246)">
<rect x="0.33284" y="0.33284" width="108.506" height="36.6124" rx="3.66124" fill="white" stroke="#919BB1" stroke-width="0.66568"/>
<path d="M15.51 25.9616C13.2153 25.9484 11.3171 21.2969 11.3171 18.9279C11.3171 15.0583 14.2405 14.2111 15.3671 14.2111C15.8748 14.2111 16.417 14.4091 16.8951 14.5843C17.2295 14.7065 17.5754 14.8327 17.7677 14.8327C17.8828 14.8327 18.1541 14.7254 18.3937 14.6312C18.9045 14.4293 19.5401 14.1783 20.2803 14.1783C20.2817 14.1783 20.2834 14.1783 20.2847 14.1783C20.8374 14.1783 22.5133 14.2987 23.5208 15.8012L23.7568 16.1534L23.4172 16.4079C22.9319 16.7715 22.0466 17.4347 22.0466 18.7484C22.0466 20.3043 23.0493 20.9026 23.531 21.1904C23.7436 21.3175 23.9637 21.4485 23.9637 21.7349C23.9637 21.922 22.4604 25.9384 20.2772 25.9384C19.743 25.9384 19.3654 25.7789 19.0324 25.6383C18.6954 25.4959 18.4046 25.3733 17.9243 25.3733C17.6808 25.3733 17.3728 25.4876 17.0469 25.609C16.6014 25.7741 16.0972 25.9616 15.525 25.9616H15.51Z" fill="#302A32"/>
<path d="M20.5116 10.6509C20.5685 12.6866 19.1024 14.0989 17.638 14.0103C17.3967 12.3857 19.1022 10.6509 20.5116 10.6509Z" fill="#302A32"/>
<path d="M37.3945 13.3239H35.0493L34.4695 14.9941H33.5609L35.8022 8.93639H36.6503L38.9003 14.9941H37.9916L37.3945 13.3239ZM37.1436 12.6143L36.2349 10.07H36.1916L35.3003 12.6143H37.1436ZM39.1546 10.4335H40.0114L41.2921 14.0681H41.3354L42.6075 10.4335H43.4642L41.8546 14.9941H40.7556L39.1546 10.4335ZM45.8188 15.0547C45.4265 15.0547 45.089 14.9537 44.8063 14.7518C44.5236 14.5498 44.3073 14.27 44.1573 13.9123C44.0131 13.5547 43.9409 13.1479 43.9409 12.6922C43.9409 12.2306 44.0159 11.821 44.1659 11.4633C44.3159 11.1056 44.5323 10.8258 44.815 10.6239C45.1034 10.4162 45.4467 10.3123 45.8448 10.3123C46.2429 10.3123 46.5602 10.4047 46.7967 10.5893C47.0333 10.7739 47.2121 10.9873 47.3333 11.2297H47.3938V10.4335H48.2938V14.9941H47.3938V14.1114H47.3333C47.2063 14.3652 47.0217 14.5873 46.7794 14.7777C46.5371 14.9623 46.2169 15.0547 45.8188 15.0547ZM46.1217 14.3104C46.5313 14.3104 46.8429 14.1547 47.0563 13.8431C47.2756 13.5258 47.3852 13.1393 47.3852 12.6835C47.3852 12.2277 47.2756 11.8441 47.0563 11.5325C46.8429 11.221 46.5313 11.0652 46.1217 11.0652C45.7063 11.0652 45.3919 11.221 45.1784 11.5325C44.965 11.8441 44.8583 12.2248 44.8583 12.6748C44.8583 13.1364 44.9621 13.5258 45.1698 13.8431C45.3833 14.1547 45.7006 14.3104 46.1217 14.3104ZM49.6104 10.4335H50.5018V14.9941H49.6104V10.4335ZM50.0518 9.60273C49.896 9.60273 49.7662 9.55081 49.6624 9.44696C49.5585 9.34312 49.5066 9.21331 49.5066 9.05754C49.5066 8.90177 49.5585 8.77196 49.6624 8.66812C49.7662 8.56427 49.896 8.51235 50.0518 8.51235C50.2075 8.51235 50.3374 8.56716 50.4412 8.67677C50.545 8.78062 50.597 8.90754 50.597 9.05754C50.597 9.20754 50.545 9.33735 50.4412 9.44696C50.3374 9.55081 50.2075 9.60273 50.0518 9.60273ZM53.0776 15.0287C52.7083 15.0287 52.4343 14.971 52.2555 14.8556C52.0766 14.7402 51.9641 14.5931 51.918 14.4143C51.8718 14.2297 51.8487 13.9931 51.8487 13.7047L51.8574 8.50369H52.7487V13.5489C52.7487 13.7623 52.7574 13.921 52.7747 14.0248C52.7978 14.1287 52.8555 14.2123 52.9478 14.2758C53.0401 14.3393 53.1872 14.371 53.3891 14.371C53.4987 14.371 53.5968 14.3623 53.6833 14.345V14.9854C53.441 15.0143 53.2391 15.0287 53.0776 15.0287ZM56.2643 15.0547C55.872 15.0547 55.5345 14.9537 55.2518 14.7518C54.9691 14.5498 54.7528 14.27 54.6028 13.9123C54.4585 13.5547 54.3864 13.1479 54.3864 12.6922C54.3864 12.2306 54.4614 11.821 54.6114 11.4633C54.7614 11.1056 54.9778 10.8258 55.2604 10.6239C55.5489 10.4162 55.8922 10.3123 56.2903 10.3123C56.6883 10.3123 57.0056 10.4047 57.2422 10.5893C57.4787 10.7739 57.6576 10.9873 57.7787 11.2297H57.8393V10.4335H58.7393V14.9941H57.8393V14.1114H57.7787C57.6518 14.3652 57.4672 14.5873 57.2249 14.7777C56.9826 14.9623 56.6624 15.0547 56.2643 15.0547ZM56.5672 14.3104C56.9768 14.3104 57.2883 14.1547 57.5018 13.8431C57.721 13.5258 57.8306 13.1393 57.8306 12.6835C57.8306 12.2277 57.721 11.8441 57.5018 11.5325C57.2883 11.221 56.9768 11.0652 56.5672 11.0652C56.1518 11.0652 55.8374 11.221 55.6239 11.5325C55.4104 11.8441 55.3037 12.2248 55.3037 12.6748C55.3037 13.1364 55.4076 13.5258 55.6153 13.8431C55.8287 14.1547 56.146 14.3104 56.5672 14.3104ZM62.4357 15.0547C62.0434 15.0547 61.7261 14.9623 61.4838 14.7777C61.2415 14.5873 61.0569 14.3652 60.9299 14.1114H60.8694V14.9941H59.9607V8.50369H60.8694V11.2297H60.9299C61.0511 10.9873 61.2299 10.7739 61.4665 10.5893C61.703 10.4047 62.0203 10.3123 62.4184 10.3123C62.8165 10.3123 63.1569 10.4162 63.4395 10.6239C63.728 10.8258 63.9444 11.1056 64.0886 11.4633C64.2386 11.821 64.3136 12.2306 64.3136 12.6922C64.3136 13.1479 64.2386 13.5547 64.0886 13.9123C63.9444 14.27 63.7309 14.5498 63.4482 14.7518C63.1655 14.9537 62.828 15.0547 62.4357 15.0547ZM62.1415 14.3104C62.5569 14.3104 62.8684 14.1547 63.0761 13.8431C63.2895 13.5316 63.3963 13.145 63.3963 12.6835C63.3963 12.2277 63.2924 11.847 63.0847 11.5412C62.877 11.2297 62.5626 11.0739 62.1415 11.0739C61.7319 11.0739 61.4174 11.2297 61.1982 11.5412C60.9847 11.8527 60.878 12.2364 60.878 12.6922C60.878 13.1479 60.9847 13.5316 61.1982 13.8431C61.4174 14.1547 61.7319 14.3104 62.1415 14.3104ZM66.5739 15.0287C66.2046 15.0287 65.9306 14.971 65.7517 14.8556C65.5729 14.7402 65.4604 14.5931 65.4142 14.4143C65.3681 14.2297 65.345 13.9931 65.345 13.7047L65.3537 8.50369H66.245V13.5489C66.245 13.7623 66.2537 13.921 66.271 14.0248C66.2941 14.1287 66.3517 14.2123 66.4441 14.2758C66.5364 14.3393 66.6835 14.371 66.8854 14.371C66.995 14.371 67.0931 14.3623 67.1796 14.345V14.9854C66.9373 15.0143 66.7354 15.0287 66.5739 15.0287ZM70.0721 15.0547C69.599 15.0547 69.201 14.9422 68.8779 14.7172C68.5548 14.4922 68.3154 14.2008 68.1596 13.8431C68.0038 13.4797 67.926 13.0931 67.926 12.6835C67.926 12.2739 68.0038 11.8902 68.1596 11.5325C68.3154 11.1691 68.5548 10.8748 68.8779 10.6498C69.2067 10.4248 69.6077 10.3123 70.0808 10.3123C70.7038 10.3123 71.2 10.5172 71.5692 10.9268C71.9385 11.3306 72.1231 11.9191 72.1231 12.6922V12.9431H68.8V13.0037C68.8 13.2345 68.8519 13.4508 68.9558 13.6527C69.0596 13.8547 69.2067 14.0191 69.3971 14.146C69.5875 14.2672 69.8067 14.3277 70.0548 14.3277C70.326 14.3277 70.5596 14.2614 70.7558 14.1287C70.9519 13.9902 71.0933 13.8056 71.1798 13.5748H72.0625C71.9471 14.0018 71.7192 14.3566 71.3788 14.6393C71.0385 14.9162 70.6029 15.0547 70.0721 15.0547ZM71.249 12.3287C71.226 11.8614 71.1077 11.5239 70.8942 11.3162C70.6865 11.1027 70.4096 10.996 70.0635 10.996C69.6942 10.996 69.3971 11.1172 69.1721 11.3595C68.9529 11.6018 68.8375 11.9248 68.826 12.3287H71.249ZM77.0949 15.0547C76.6276 15.0547 76.2324 14.945 75.9093 14.7258C75.5863 14.5066 75.3439 14.2181 75.1824 13.8604C75.0266 13.497 74.9488 13.1075 74.9488 12.6922C74.9488 12.271 75.0266 11.8816 75.1824 11.5239C75.3439 11.1604 75.5863 10.8691 75.9093 10.6498C76.2324 10.4248 76.6276 10.3123 77.0949 10.3123C77.5622 10.3123 77.9574 10.4248 78.2805 10.6498C78.6036 10.8691 78.8459 11.1604 79.0074 11.5239C79.1689 11.8816 79.2497 12.2681 79.2497 12.6835C79.2497 13.0989 79.1689 13.4883 79.0074 13.8518C78.8459 14.2095 78.6036 14.5008 78.2805 14.7258C77.9574 14.945 77.5622 15.0547 77.0949 15.0547ZM77.0949 14.3104C77.493 14.3104 77.8016 14.1547 78.0209 13.8431C78.2459 13.5316 78.3584 13.1422 78.3584 12.6748C78.3584 12.2075 78.2459 11.821 78.0209 11.5152C77.8016 11.2095 77.493 11.0566 77.0949 11.0566C76.7026 11.0566 76.3939 11.2123 76.1689 11.5239C75.9439 11.8297 75.8314 12.2133 75.8314 12.6748C75.8314 13.1422 75.9411 13.5316 76.1603 13.8431C76.3853 14.1547 76.6968 14.3104 77.0949 14.3104ZM80.2518 10.4335H81.1518V11.2123H81.221C81.3307 10.9585 81.5095 10.745 81.7576 10.572C82.0057 10.3989 82.3114 10.3123 82.6749 10.3123C83.0672 10.3123 83.3903 10.4075 83.6441 10.5979C83.898 10.7825 84.0826 11.022 84.198 11.3162C84.3133 11.6047 84.371 11.9133 84.371 12.2422V14.9941H83.4797V12.372C83.4797 11.9566 83.373 11.6393 83.1595 11.42C82.9518 11.2008 82.6749 11.0912 82.3287 11.0912C81.9653 11.0912 81.6768 11.2095 81.4633 11.446C81.2557 11.6825 81.1518 11.9912 81.1518 12.372V14.9941H80.2518V10.4335Z" fill="#302A32"/>
<path d="M39.3949 25.0266H36.1996L35.4541 27.3166H33.5901L36.9452 17.9971H38.6759L42.0177 27.3166H40.1538L39.3949 25.0266ZM38.9289 23.6021L37.8239 20.287H37.744L36.6656 23.6021H38.9289ZM47.1275 27.4231C46.5328 27.4231 46.0668 27.2855 45.7296 27.0104C45.3923 26.7352 45.1438 26.4335 44.984 26.1051H44.8775V30.0858H43.0269V20.287H44.8775V21.3787H44.984C45.126 21.0769 45.3657 20.7929 45.7029 20.5266C46.0402 20.2515 46.5106 20.1139 47.1142 20.1139C48.0106 20.1139 48.6985 20.4468 49.1778 21.1124C49.666 21.7781 49.91 22.6701 49.91 23.7885C49.91 24.8802 49.666 25.7589 49.1778 26.4246C48.6985 27.0903 48.0151 27.4231 47.1275 27.4231ZM46.4618 25.9586C46.9944 25.9586 47.3893 25.7456 47.6467 25.3195C47.913 24.8935 48.0461 24.3787 48.0461 23.7752C48.0461 23.1894 47.913 22.6879 47.6467 22.2707C47.3893 21.8447 46.9944 21.6317 46.4618 21.6317C45.9381 21.6317 45.5432 21.8447 45.2769 22.2707C45.0106 22.6968 44.8775 23.2027 44.8775 23.7885C44.8775 24.3832 45.0106 24.8935 45.2769 25.3195C45.5432 25.7456 45.9381 25.9586 46.4618 25.9586ZM55.3835 27.4231C54.7888 27.4231 54.3228 27.2855 53.9856 27.0104C53.6483 26.7352 53.3998 26.4335 53.24 26.1051H53.1335V30.0858H51.2829V20.287H53.1335V21.3787H53.24C53.382 21.0769 53.6217 20.7929 53.9589 20.5266C54.2962 20.2515 54.7666 20.1139 55.3702 20.1139C56.2666 20.1139 56.9545 20.4468 57.4338 21.1124C57.9219 21.7781 58.166 22.6701 58.166 23.7885C58.166 24.8802 57.9219 25.7589 57.4338 26.4246C56.9545 27.0903 56.2711 27.4231 55.3835 27.4231ZM54.7178 25.9586C55.2504 25.9586 55.6453 25.7456 55.9027 25.3195C56.169 24.8935 56.3021 24.3787 56.3021 23.7752C56.3021 23.1894 56.169 22.6879 55.9027 22.2707C55.6453 21.8447 55.2504 21.6317 54.7178 21.6317C54.1941 21.6317 53.7992 21.8447 53.5329 22.2707C53.2666 22.6968 53.1335 23.2027 53.1335 23.7885C53.1335 24.3832 53.2666 24.8935 53.5329 25.3195C53.7992 25.7456 54.1941 25.9586 54.7178 25.9586ZM65.9756 27.4364C65.23 27.4364 64.5866 27.29 64.0451 26.9971C63.5126 26.6953 63.1087 26.3092 62.8336 25.8388C62.5584 25.3684 62.4209 24.8713 62.4209 24.3477V24.2678H64.4445V24.3477C64.4445 24.5695 64.4978 24.7959 64.6043 25.0266C64.7197 25.2485 64.8928 25.4349 65.1235 25.5858C65.3632 25.7367 65.6561 25.8122 66.0022 25.8122C66.4371 25.8122 66.7877 25.7012 67.054 25.4793C67.3292 25.2574 67.4667 24.9601 67.4667 24.5873C67.4667 24.2678 67.3513 24.0148 67.1206 23.8284C66.8987 23.6332 66.6235 23.5045 66.2951 23.4423L65.1635 23.2027C64.5777 23.0873 64.0141 22.8388 63.4726 22.4571C62.9312 22.0666 62.6605 21.432 62.6605 20.5533C62.6605 19.9852 62.7981 19.4971 63.0732 19.0888C63.3484 18.6716 63.73 18.3565 64.2182 18.1435C64.7064 17.9216 65.2611 17.8107 65.8824 17.8107C66.5925 17.8107 67.2005 17.9482 67.7064 18.2234C68.2212 18.4985 68.6073 18.8536 68.8647 19.2885C69.1309 19.7234 69.2641 20.1849 69.2641 20.6731V20.7264H67.2404V20.6864C67.2404 20.3669 67.125 20.0695 66.8942 19.7944C66.6724 19.5104 66.3129 19.3684 65.8158 19.3684C65.4076 19.3684 65.088 19.4793 64.8573 19.7012C64.6265 19.9142 64.5111 20.1894 64.5111 20.5266C64.5111 20.8462 64.6265 21.0991 64.8573 21.2855C65.0969 21.4719 65.3898 21.6006 65.736 21.6716L66.8543 21.9113C67.5377 22.0622 68.1324 22.3417 68.6383 22.75C69.1442 23.1583 69.3972 23.7574 69.3972 24.5474C69.3972 25.1154 69.2508 25.6213 68.9579 26.0651C68.665 26.5 68.2567 26.8373 67.733 27.0769C67.2182 27.3166 66.6324 27.4364 65.9756 27.4364ZM73.2783 21.7249V24.8536C73.2783 25.1642 73.2916 25.395 73.3183 25.5459C73.3538 25.6968 73.4425 25.8166 73.5845 25.9053C73.7266 25.9941 73.9573 26.0385 74.2768 26.0385C74.4632 26.0385 74.6541 26.0207 74.8493 25.9852V27.2633C74.7517 27.2811 74.5742 27.3033 74.3168 27.3299C74.0683 27.3565 73.8242 27.3698 73.5845 27.3698C72.9366 27.3698 72.4529 27.2766 72.1334 27.0903C71.8227 26.895 71.6274 26.6553 71.5476 26.3713C71.4677 26.0784 71.4277 25.7056 71.4277 25.253V21.7249H70.2561V20.287H71.4411V17.9971H73.2783V20.287H74.8493V21.7249H73.2783ZM79.3879 27.4231C78.6512 27.4231 78.0299 27.2589 77.524 26.9305C77.027 26.5932 76.6542 26.1494 76.4057 25.5991C76.1572 25.0488 76.0329 24.4453 76.0329 23.7885C76.0329 23.1317 76.1527 22.5281 76.3924 21.9778C76.6409 21.4187 77.0181 20.9704 77.524 20.6332C78.0299 20.2959 78.6512 20.1272 79.3879 20.1272C80.1246 20.1272 80.7459 20.2959 81.2518 20.6332C81.7577 20.9616 82.135 21.4009 82.3835 21.9512C82.632 22.5015 82.7563 23.1051 82.7563 23.7619C82.7563 24.4187 82.632 25.0266 82.3835 25.5858C82.135 26.1361 81.7577 26.5799 81.2518 26.9172C80.7459 27.2545 80.1246 27.4231 79.3879 27.4231ZM79.3879 25.932C79.9027 25.932 80.2888 25.7278 80.5462 25.3195C80.8125 24.9024 80.9456 24.3832 80.9456 23.7619C80.9456 23.1406 80.8125 22.6302 80.5462 22.2308C80.2888 21.8225 79.9027 21.6184 79.3879 21.6184C78.8731 21.6184 78.487 21.8225 78.2296 22.2308C77.9722 22.6302 77.8435 23.1406 77.8435 23.7619C77.8435 24.3832 77.9722 24.9024 78.2296 25.3195C78.4959 25.7278 78.882 25.932 79.3879 25.932ZM84.1131 20.287H85.9371V21.4053H86.0303C86.1457 21.0947 86.3587 20.8329 86.6693 20.6198C86.98 20.398 87.3794 20.287 87.8675 20.287C88.0539 20.287 88.2137 20.3048 88.3468 20.3403L88.267 22.0311C88.0451 21.969 87.8099 21.9379 87.5613 21.9379C87.011 21.9379 86.6028 22.0843 86.3365 22.3772C86.0702 22.6613 85.9371 23.1361 85.9371 23.8018V27.3166H84.1131V20.287ZM92.3115 27.4231C91.5748 27.4231 90.9535 27.2545 90.4476 26.9172C89.9417 26.571 89.5644 26.1228 89.3159 25.5725C89.0763 25.0133 88.9565 24.4142 88.9565 23.7752C88.9565 23.1361 89.0763 22.5414 89.3159 21.9911C89.5644 21.432 89.9417 20.9793 90.4476 20.6332C90.9535 20.287 91.5792 20.1139 92.3248 20.1139C93.31 20.1139 94.0911 20.429 94.668 21.0592C95.2538 21.6894 95.5467 22.5991 95.5467 23.7885V24.2944H90.7272V24.4009C90.7272 24.8269 90.8736 25.1953 91.1665 25.5059C91.4594 25.8077 91.8278 25.9586 92.2715 25.9586C92.6177 25.9586 92.9106 25.8787 93.1502 25.719C93.3899 25.5592 93.563 25.3417 93.6695 25.0666H95.4801C95.2937 25.7589 94.9298 26.3269 94.3884 26.7707C93.847 27.2056 93.1547 27.4231 92.3115 27.4231ZM93.776 23.0962C93.7582 22.537 93.6162 22.1243 93.3499 21.858C93.0837 21.5917 92.7331 21.4586 92.2982 21.4586C91.8366 21.4586 91.4727 21.6051 91.2065 21.898C90.9402 22.1908 90.7982 22.5903 90.7804 23.0962H93.776Z" fill="#302A32"/>
</g>
<defs>
<clipPath id="clip0_178_3246">
<rect width="109.172" height="37.2781" fill="white"/>
</clipPath>
</defs>
</svg>
