<svg width="50" height="26" viewBox="0 0 50 26" fill="none" xmlns="http://www.w3.org/2000/svg">
<g clip-path="url(#clip0_65_1749)">
<rect x="0.974104" y="0.321516" width="48.0413" height="24.9803" rx="2.25061" fill="#F3F3F3" stroke="#F3F3F3" stroke-width="0.643033"/>
<path fill-rule="evenodd" clip-rule="evenodd" d="M16.789 17.8498H13.8641L11.6707 9.23606C11.5666 8.83983 11.3456 8.48954 11.0204 8.32444C10.209 7.90954 9.31484 7.57935 8.3394 7.41282V7.08119H13.0512C13.7015 7.08119 14.1892 7.57935 14.2705 8.15791L15.4085 14.3713L18.332 7.08119H21.1756L16.789 17.8498ZM22.8013 17.8498H20.039L22.3136 7.08119H25.0759L22.8013 17.8498ZM28.6497 10.0645C28.7309 9.48449 29.2187 9.15286 29.7877 9.15286C30.6818 9.06959 31.6558 9.23612 32.4687 9.64958L32.9564 7.33105C32.1436 6.99942 31.2494 6.83289 30.438 6.83289C27.7569 6.83289 25.806 8.3245 25.806 10.3947C25.806 11.9696 27.1879 12.7965 28.1634 13.2946C29.2187 13.7914 29.6251 14.123 29.5438 14.6197C29.5438 15.3648 28.7309 15.6964 27.9195 15.6964C26.9441 15.6964 25.9686 15.4481 25.0759 15.0332L24.5882 17.3531C25.5636 17.7666 26.6189 17.9331 27.5943 17.9331C30.6005 18.015 32.4687 16.5248 32.4687 14.2881C32.4687 11.4714 28.6497 11.3063 28.6497 10.0645ZM42.1361 17.8498L39.9427 7.08119H37.5869C37.0991 7.08119 36.6114 7.41282 36.4488 7.90954L32.3874 17.8498H35.231L35.7985 16.2764H39.2925L39.6176 17.8498H42.1361ZM37.9935 9.98123L38.8049 14.0397H36.5303L37.9935 9.98123Z" fill="#172B85"/>
</g>
<defs>
<clipPath id="clip0_65_1749">
<rect x="0.652588" width="48.6843" height="25.6233" rx="3.41645" fill="white"/>
</clipPath>
</defs>
</svg>
